<mxfile host="app.diagrams.net" agent="Mozilla/5.0 (Windows NT 10.0; Win64; x64) AppleWebKit/537.36 (KHTML, like Gecko) Chrome/132.0.0.0 Safari/537.36" version="26.0.14">
  <diagram name="Page-1" id="Wo-DB7h3plVt8UQ9od81">
    <mxGraphModel dx="1034" dy="446" grid="1" gridSize="10" guides="1" tooltips="1" connect="1" arrows="1" fold="1" page="1" pageScale="1" pageWidth="827" pageHeight="1169" math="0" shadow="0">
      <root>
        <mxCell id="0" />
        <mxCell id="1" parent="0" />
        <mxCell id="u8LUVFRRJC20wth9ghyf-1" value="a[1]" style="text;html=1;align=center;verticalAlign=middle;resizable=0;points=[];autosize=1;strokeColor=none;fillColor=none;" vertex="1" parent="1">
          <mxGeometry x="50" y="128" width="40" height="30" as="geometry" />
        </mxCell>
        <mxCell id="u8LUVFRRJC20wth9ghyf-2" value="a[0]" style="text;html=1;align=center;verticalAlign=middle;resizable=0;points=[];autosize=1;strokeColor=none;fillColor=none;" vertex="1" parent="1">
          <mxGeometry x="50" y="170" width="40" height="30" as="geometry" />
        </mxCell>
        <mxCell id="u8LUVFRRJC20wth9ghyf-3" value="b[1]" style="text;html=1;align=center;verticalAlign=middle;resizable=0;points=[];autosize=1;strokeColor=none;fillColor=none;" vertex="1" parent="1">
          <mxGeometry x="50" y="260" width="40" height="30" as="geometry" />
        </mxCell>
        <mxCell id="u8LUVFRRJC20wth9ghyf-4" value="b[0]" style="text;html=1;align=center;verticalAlign=middle;resizable=0;points=[];autosize=1;strokeColor=none;fillColor=none;" vertex="1" parent="1">
          <mxGeometry x="50" y="300" width="40" height="30" as="geometry" />
        </mxCell>
        <mxCell id="u8LUVFRRJC20wth9ghyf-5" style="edgeStyle=orthogonalEdgeStyle;rounded=0;orthogonalLoop=1;jettySize=auto;html=1;entryX=0;entryY=0.75;entryDx=0;entryDy=0;entryPerimeter=0;" edge="1" parent="1" source="u8LUVFRRJC20wth9ghyf-3" target="u8LUVFRRJC20wth9ghyf-17">
          <mxGeometry relative="1" as="geometry">
            <mxPoint x="310" y="47.5" as="targetPoint" />
            <Array as="points">
              <mxPoint x="200" y="275" />
              <mxPoint x="200" y="75" />
            </Array>
          </mxGeometry>
        </mxCell>
        <mxCell id="u8LUVFRRJC20wth9ghyf-6" style="edgeStyle=orthogonalEdgeStyle;rounded=0;orthogonalLoop=1;jettySize=auto;html=1;entryX=0;entryY=0.25;entryDx=0;entryDy=0;entryPerimeter=0;" edge="1" parent="1" source="u8LUVFRRJC20wth9ghyf-4" target="u8LUVFRRJC20wth9ghyf-17">
          <mxGeometry relative="1" as="geometry">
            <mxPoint x="310" y="83" as="targetPoint" />
            <Array as="points">
              <mxPoint x="180" y="315" />
              <mxPoint x="180" y="50" />
              <mxPoint x="330" y="50" />
              <mxPoint x="330" y="45" />
            </Array>
          </mxGeometry>
        </mxCell>
        <mxCell id="u8LUVFRRJC20wth9ghyf-7" style="edgeStyle=orthogonalEdgeStyle;rounded=0;orthogonalLoop=1;jettySize=auto;html=1;entryX=0;entryY=0.25;entryDx=0;entryDy=0;entryPerimeter=0;" edge="1" parent="1" source="u8LUVFRRJC20wth9ghyf-1" target="u8LUVFRRJC20wth9ghyf-14">
          <mxGeometry relative="1" as="geometry">
            <mxPoint x="310" y="407.5" as="targetPoint" />
            <Array as="points">
              <mxPoint x="220" y="143" />
              <mxPoint x="220" y="408" />
              <mxPoint x="310" y="408" />
            </Array>
          </mxGeometry>
        </mxCell>
        <mxCell id="u8LUVFRRJC20wth9ghyf-8" style="edgeStyle=orthogonalEdgeStyle;rounded=0;orthogonalLoop=1;jettySize=auto;html=1;entryX=0;entryY=0.75;entryDx=0;entryDy=0;entryPerimeter=0;" edge="1" parent="1" source="u8LUVFRRJC20wth9ghyf-2" target="u8LUVFRRJC20wth9ghyf-14">
          <mxGeometry relative="1" as="geometry">
            <mxPoint x="310" y="442.5" as="targetPoint" />
            <Array as="points">
              <mxPoint x="160" y="185" />
              <mxPoint x="160" y="443" />
              <mxPoint x="310" y="443" />
            </Array>
          </mxGeometry>
        </mxCell>
        <mxCell id="u8LUVFRRJC20wth9ghyf-9" style="edgeStyle=orthogonalEdgeStyle;rounded=0;orthogonalLoop=1;jettySize=auto;html=1;entryX=0;entryY=0.25;entryDx=0;entryDy=0;entryPerimeter=0;" edge="1" parent="1" source="u8LUVFRRJC20wth9ghyf-1" target="u8LUVFRRJC20wth9ghyf-18">
          <mxGeometry relative="1" as="geometry">
            <mxPoint x="310" y="137.5" as="targetPoint" />
            <Array as="points">
              <mxPoint x="220" y="143" />
              <mxPoint x="220" y="138" />
              <mxPoint x="340" y="138" />
            </Array>
          </mxGeometry>
        </mxCell>
        <mxCell id="u8LUVFRRJC20wth9ghyf-10" style="edgeStyle=orthogonalEdgeStyle;rounded=0;orthogonalLoop=1;jettySize=auto;html=1;entryX=0;entryY=0.75;entryDx=0;entryDy=0;entryPerimeter=0;" edge="1" parent="1" source="u8LUVFRRJC20wth9ghyf-4" target="u8LUVFRRJC20wth9ghyf-18">
          <mxGeometry relative="1" as="geometry">
            <mxPoint x="310" y="172.5" as="targetPoint" />
            <Array as="points">
              <mxPoint x="180" y="315" />
              <mxPoint x="180" y="173" />
              <mxPoint x="340" y="173" />
            </Array>
          </mxGeometry>
        </mxCell>
        <mxCell id="u8LUVFRRJC20wth9ghyf-11" style="edgeStyle=orthogonalEdgeStyle;rounded=0;orthogonalLoop=1;jettySize=auto;html=1;entryX=0;entryY=0.25;entryDx=0;entryDy=0;entryPerimeter=0;" edge="1" parent="1" source="u8LUVFRRJC20wth9ghyf-1" target="u8LUVFRRJC20wth9ghyf-19">
          <mxGeometry relative="1" as="geometry">
            <mxPoint x="309.3499999999999" y="235.97000000000003" as="targetPoint" />
            <Array as="points">
              <mxPoint x="220" y="143" />
              <mxPoint x="220" y="215" />
            </Array>
          </mxGeometry>
        </mxCell>
        <mxCell id="u8LUVFRRJC20wth9ghyf-12" style="edgeStyle=orthogonalEdgeStyle;rounded=0;orthogonalLoop=1;jettySize=auto;html=1;entryX=0;entryY=0.75;entryDx=0;entryDy=0;entryPerimeter=0;" edge="1" parent="1" source="u8LUVFRRJC20wth9ghyf-3" target="u8LUVFRRJC20wth9ghyf-19">
          <mxGeometry relative="1" as="geometry">
            <mxPoint x="310" y="262.5" as="targetPoint" />
            <Array as="points">
              <mxPoint x="200" y="275" />
              <mxPoint x="200" y="245" />
            </Array>
          </mxGeometry>
        </mxCell>
        <mxCell id="u8LUVFRRJC20wth9ghyf-13" style="edgeStyle=orthogonalEdgeStyle;rounded=0;orthogonalLoop=1;jettySize=auto;html=1;entryX=0;entryY=0.75;entryDx=0;entryDy=0;entryPerimeter=0;" edge="1" parent="1" source="u8LUVFRRJC20wth9ghyf-3" target="u8LUVFRRJC20wth9ghyf-15">
          <mxGeometry relative="1" as="geometry">
            <mxPoint x="310" y="352.5" as="targetPoint" />
            <Array as="points">
              <mxPoint x="200" y="275" />
              <mxPoint x="200" y="330" />
            </Array>
          </mxGeometry>
        </mxCell>
        <mxCell id="u8LUVFRRJC20wth9ghyf-14" value="" style="verticalLabelPosition=bottom;shadow=0;dashed=0;align=center;html=1;verticalAlign=top;shape=mxgraph.electrical.logic_gates.logic_gate;operation=and;" vertex="1" parent="1">
          <mxGeometry x="340" y="370" width="100" height="60" as="geometry" />
        </mxCell>
        <mxCell id="u8LUVFRRJC20wth9ghyf-15" value="" style="verticalLabelPosition=bottom;shadow=0;dashed=0;align=center;html=1;verticalAlign=top;shape=mxgraph.electrical.logic_gates.logic_gate;operation=and;" vertex="1" parent="1">
          <mxGeometry x="340" y="290" width="100" height="60" as="geometry" />
        </mxCell>
        <mxCell id="u8LUVFRRJC20wth9ghyf-16" style="edgeStyle=orthogonalEdgeStyle;rounded=0;orthogonalLoop=1;jettySize=auto;html=1;entryX=0;entryY=0.25;entryDx=0;entryDy=0;entryPerimeter=0;" edge="1" parent="1" source="u8LUVFRRJC20wth9ghyf-2" target="u8LUVFRRJC20wth9ghyf-15">
          <mxGeometry relative="1" as="geometry">
            <Array as="points">
              <mxPoint x="160" y="185" />
              <mxPoint x="160" y="300" />
            </Array>
          </mxGeometry>
        </mxCell>
        <mxCell id="u8LUVFRRJC20wth9ghyf-17" value="" style="verticalLabelPosition=bottom;shadow=0;dashed=0;align=center;html=1;verticalAlign=top;shape=mxgraph.electrical.logic_gates.logic_gate;operation=and;" vertex="1" parent="1">
          <mxGeometry x="340" y="30" width="100" height="60" as="geometry" />
        </mxCell>
        <mxCell id="u8LUVFRRJC20wth9ghyf-18" value="" style="verticalLabelPosition=bottom;shadow=0;dashed=0;align=center;html=1;verticalAlign=top;shape=mxgraph.electrical.logic_gates.logic_gate;operation=and;" vertex="1" parent="1">
          <mxGeometry x="340" y="110" width="100" height="60" as="geometry" />
        </mxCell>
        <mxCell id="u8LUVFRRJC20wth9ghyf-19" value="" style="verticalLabelPosition=bottom;shadow=0;dashed=0;align=center;html=1;verticalAlign=top;shape=mxgraph.electrical.logic_gates.logic_gate;operation=and;" vertex="1" parent="1">
          <mxGeometry x="340" y="200" width="100" height="60" as="geometry" />
        </mxCell>
        <mxCell id="u8LUVFRRJC20wth9ghyf-20" value="" style="ellipse;whiteSpace=wrap;html=1;aspect=fixed;" vertex="1" parent="1">
          <mxGeometry x="350" y="40" width="10" height="10" as="geometry" />
        </mxCell>
        <mxCell id="u8LUVFRRJC20wth9ghyf-21" value="" style="ellipse;whiteSpace=wrap;html=1;aspect=fixed;" vertex="1" parent="1">
          <mxGeometry x="350" y="70" width="10" height="10" as="geometry" />
        </mxCell>
        <mxCell id="u8LUVFRRJC20wth9ghyf-22" value="" style="ellipse;whiteSpace=wrap;html=1;aspect=fixed;" vertex="1" parent="1">
          <mxGeometry x="350" y="148" width="10" height="10" as="geometry" />
        </mxCell>
        <mxCell id="u8LUVFRRJC20wth9ghyf-23" value="" style="ellipse;whiteSpace=wrap;html=1;aspect=fixed;" vertex="1" parent="1">
          <mxGeometry x="350" y="240" width="10" height="10" as="geometry" />
        </mxCell>
        <mxCell id="u8LUVFRRJC20wth9ghyf-24" value="" style="ellipse;whiteSpace=wrap;html=1;aspect=fixed;" vertex="1" parent="1">
          <mxGeometry x="350" y="330" width="10" height="10" as="geometry" />
        </mxCell>
        <mxCell id="u8LUVFRRJC20wth9ghyf-25" style="edgeStyle=orthogonalEdgeStyle;rounded=0;orthogonalLoop=1;jettySize=auto;html=1;exitX=1;exitY=0.5;exitDx=0;exitDy=0;exitPerimeter=0;" edge="1" parent="1" source="u8LUVFRRJC20wth9ghyf-26">
          <mxGeometry relative="1" as="geometry">
            <mxPoint x="730" y="230" as="targetPoint" />
          </mxGeometry>
        </mxCell>
        <mxCell id="u8LUVFRRJC20wth9ghyf-26" value="OR" style="shape=xor;whiteSpace=wrap;html=1;fillColor=#d5e8d4;strokeColor=#82b366;direction=east;" vertex="1" parent="1">
          <mxGeometry x="570" y="170" width="80" height="120" as="geometry" />
        </mxCell>
        <mxCell id="u8LUVFRRJC20wth9ghyf-27" style="edgeStyle=orthogonalEdgeStyle;rounded=0;orthogonalLoop=1;jettySize=auto;html=1;exitX=1;exitY=0.5;exitDx=0;exitDy=0;exitPerimeter=0;entryX=0.075;entryY=0.133;entryDx=0;entryDy=0;entryPerimeter=0;" edge="1" parent="1" source="u8LUVFRRJC20wth9ghyf-17" target="u8LUVFRRJC20wth9ghyf-26">
          <mxGeometry relative="1" as="geometry">
            <Array as="points">
              <mxPoint x="540" y="60" />
              <mxPoint x="540" y="186" />
            </Array>
          </mxGeometry>
        </mxCell>
        <mxCell id="u8LUVFRRJC20wth9ghyf-28" style="edgeStyle=orthogonalEdgeStyle;rounded=0;orthogonalLoop=1;jettySize=auto;html=1;exitX=1;exitY=0.5;exitDx=0;exitDy=0;exitPerimeter=0;entryX=0.175;entryY=0.25;entryDx=0;entryDy=0;entryPerimeter=0;" edge="1" parent="1" source="u8LUVFRRJC20wth9ghyf-18" target="u8LUVFRRJC20wth9ghyf-26">
          <mxGeometry relative="1" as="geometry" />
        </mxCell>
        <mxCell id="u8LUVFRRJC20wth9ghyf-29" style="edgeStyle=orthogonalEdgeStyle;rounded=0;orthogonalLoop=1;jettySize=auto;html=1;exitX=1;exitY=0.5;exitDx=0;exitDy=0;exitPerimeter=0;entryX=0.25;entryY=0.5;entryDx=0;entryDy=0;entryPerimeter=0;" edge="1" parent="1" source="u8LUVFRRJC20wth9ghyf-19" target="u8LUVFRRJC20wth9ghyf-26">
          <mxGeometry relative="1" as="geometry" />
        </mxCell>
        <mxCell id="u8LUVFRRJC20wth9ghyf-30" style="edgeStyle=orthogonalEdgeStyle;rounded=0;orthogonalLoop=1;jettySize=auto;html=1;exitX=1;exitY=0.5;exitDx=0;exitDy=0;exitPerimeter=0;entryX=0.175;entryY=0.75;entryDx=0;entryDy=0;entryPerimeter=0;" edge="1" parent="1" source="u8LUVFRRJC20wth9ghyf-15" target="u8LUVFRRJC20wth9ghyf-26">
          <mxGeometry relative="1" as="geometry" />
        </mxCell>
        <mxCell id="u8LUVFRRJC20wth9ghyf-31" style="edgeStyle=orthogonalEdgeStyle;rounded=0;orthogonalLoop=1;jettySize=auto;html=1;exitX=1;exitY=0.5;exitDx=0;exitDy=0;exitPerimeter=0;entryX=0.058;entryY=0.906;entryDx=0;entryDy=0;entryPerimeter=0;" edge="1" parent="1" source="u8LUVFRRJC20wth9ghyf-14" target="u8LUVFRRJC20wth9ghyf-26">
          <mxGeometry relative="1" as="geometry">
            <Array as="points">
              <mxPoint x="540" y="400" />
              <mxPoint x="540" y="279" />
            </Array>
          </mxGeometry>
        </mxCell>
        <mxCell id="u8LUVFRRJC20wth9ghyf-32" value="~b1.~b0" style="text;html=1;align=center;verticalAlign=middle;resizable=0;points=[];autosize=1;strokeColor=none;fillColor=none;" vertex="1" parent="1">
          <mxGeometry x="355" y="45" width="70" height="30" as="geometry" />
        </mxCell>
        <mxCell id="u8LUVFRRJC20wth9ghyf-33" value="a1.a0" style="text;html=1;align=center;verticalAlign=middle;resizable=0;points=[];autosize=1;strokeColor=none;fillColor=none;" vertex="1" parent="1">
          <mxGeometry x="360" y="385" width="50" height="30" as="geometry" />
        </mxCell>
        <mxCell id="u8LUVFRRJC20wth9ghyf-34" value="a1.~b0" style="text;html=1;align=center;verticalAlign=middle;resizable=0;points=[];autosize=1;strokeColor=none;fillColor=none;" vertex="1" parent="1">
          <mxGeometry x="355" y="125" width="60" height="30" as="geometry" />
        </mxCell>
        <mxCell id="u8LUVFRRJC20wth9ghyf-35" value="a1.~b1" style="text;html=1;align=center;verticalAlign=middle;resizable=0;points=[];autosize=1;strokeColor=none;fillColor=none;" vertex="1" parent="1">
          <mxGeometry x="360" y="215" width="60" height="30" as="geometry" />
        </mxCell>
        <mxCell id="u8LUVFRRJC20wth9ghyf-36" value="a0.~b1" style="text;strokeColor=none;align=center;fillColor=none;html=1;verticalAlign=middle;whiteSpace=wrap;rounded=0;" vertex="1" parent="1">
          <mxGeometry x="360" y="305" width="60" height="30" as="geometry" />
        </mxCell>
        <mxCell id="u8LUVFRRJC20wth9ghyf-37" value="RED" style="text;html=1;align=center;verticalAlign=middle;resizable=0;points=[];autosize=1;strokeColor=none;fillColor=none;" vertex="1" parent="1">
          <mxGeometry x="730" y="215" width="50" height="30" as="geometry" />
        </mxCell>
      </root>
    </mxGraphModel>
  </diagram>
</mxfile>
